# xmcd
#
# Track frame offsets:
#	150
#	15776
#	29659
#	49127
#	67394
#	83914
#	101682
#	119986
#	137887
#	154318
#	172556
#
# Disc length: 2541 seconds
#
# Revision: 0
# Processed by: cddbd v1.4PL0 Copyright (c) Steve Scherf et al.
# Submitted via: audiograbber 1.81.01
#
DISCID=9709eb0b
DTITLE=Travis Tritt - Down The Road I Go
DYEAR=2000
DGENRE=Country
TTITLE0=Down The Road I Go
TTITLE1=Livin' On Borrowed Time
TTITLE2=Best Of Intentions
TTITLE3=It's A Greaat Day To Be Alive
TTITLE4=Love Of A Woman
TTITLE5=Never Get Away From Me
TTITLE6=Modern Day Bonnie And Clyde
TTITLE7=I Wish I Was Wrong 
TTITLE8=If The Fall Don't Kill You
TTITLE9=Just Too Tired To Fight It
TTITLE10=Southbound Train
EXTD=
EXTT0=
EXTT1=
EXTT2=
EXTT3=
EXTT4=
EXTT5=
EXTT6=
EXTT7=
EXTT8=
EXTT9=
EXTT10=
PLAYORDER=
